<svg width="768" height="768" viewBox="0 0 768 768" fill="none" xmlns="http://www.w3.org/2000/svg">
<rect x="8" y="8" width="752" height="752" rx="184" fill="#161B36"/>
<g clip-path="url(#clip0_53_458)">
<path d="M390.902 446.117C372.392 446.117 341.02 433.882 341.02 418.509L357.648 318.431C357.648 303.059 372.392 290.823 390.902 290.823C409.411 290.823 424.157 303.059 424.157 318.431L440.785 418.509C440.785 433.882 409.098 446.117 390.902 446.117Z" fill="url(#paint0_linear_53_458)"/>
<path d="M390.902 274.824C413.773 274.824 432.314 256.283 432.314 233.412C432.314 210.541 413.773 192 390.902 192C368.031 192 349.49 210.541 349.49 233.412C349.49 256.283 368.031 274.824 390.902 274.824Z" fill="url(#paint1_linear_53_458)"/>
<path fill-rule="evenodd" clip-rule="evenodd" d="M472.47 557.804L624.314 402.51C629.648 397.436 633.598 391.085 635.794 384.058C637.99 377.032 638.358 369.562 636.863 362.353C633.726 348.236 623.373 336.001 608.314 328.785L537.726 294.588C509.804 280.784 473.726 288.942 457.412 312.471C452.04 320.306 449.294 329.643 449.569 339.138C450.196 351.373 454.274 360.785 471.215 369.255C488.157 377.726 499.765 389.647 502.902 404.392C510.745 439.216 469.648 474.981 410.981 484.079C352.314 493.177 298.666 472.471 290.823 437.647C287.372 421.647 291.138 407.843 309.02 391.216C326.903 374.588 323.138 348.235 301.177 335.373H300.863C273.883 320 237.49 325.647 219.294 348.236L154.039 428.236C149.111 434.042 145.841 441.069 144.572 448.578C143.302 456.087 144.079 463.799 146.823 470.903C149.906 478.428 154.678 485.142 160.771 490.528C166.864 495.914 174.115 499.825 181.961 501.961L406.275 572.549C412.973 574.662 419.957 575.72 426.98 575.687C443.906 575.945 460.251 569.52 472.47 557.804ZM216 480C229.255 480 240 469.255 240 456C240 442.745 229.255 432 216 432C202.745 432 192 442.745 192 456C192 469.255 202.745 480 216 480Z" fill="url(#paint2_linear_53_458)"/>
</g>
<rect x="8" y="8" width="752" height="752" rx="184" stroke="url(#paint3_radial_53_458)" stroke-width="16"/>
<defs>
<linearGradient id="paint0_linear_53_458" x1="395.295" y1="301.184" x2="323.84" y2="431.962" gradientUnits="userSpaceOnUse">
<stop stop-color="#F416A8"/>
<stop offset="1" stop-color="#AD16F4"/>
</linearGradient>
<linearGradient id="paint1_linear_53_458" x1="394.549" y1="197.526" x2="366.245" y2="278.161" gradientUnits="userSpaceOnUse">
<stop stop-color="#F416A8"/>
<stop offset="1" stop-color="#AD16F4"/>
</linearGradient>
<linearGradient id="paint2_linear_53_458" x1="412.614" y1="307.064" x2="350.799" y2="609.173" gradientUnits="userSpaceOnUse">
<stop stop-color="#F416A8"/>
<stop offset="1" stop-color="#AD16F4"/>
</linearGradient>
<radialGradient id="paint3_radial_53_458" cx="0" cy="0" r="1" gradientUnits="userSpaceOnUse" gradientTransform="translate(415.753 364.78) rotate(-18.3648) scale(2537.66 3.63906e+08)">
<stop stop-color="#F600F5"/>
<stop offset="0.0001" stop-color="#F600F5"/>
<stop offset="1" stop-color="#00FFAA"/>
</radialGradient>
<clipPath id="clip0_53_458">
<rect width="493.804" height="384" fill="white" transform="translate(144 192)"/>
</clipPath>
</defs>
</svg>
